<?xml version="1.0" encoding="utf-8"?>
<!-- Generator: Adobe Illustrator 26.3.1, SVG Export Plug-In . SVG Version: 6.00 Build 0)  -->
<svg version="1.1" id="圖層_1" xmlns="http://www.w3.org/2000/svg" xmlns:xlink="http://www.w3.org/1999/xlink" x="0px" y="0px"
	 viewBox="0 0 18 24" style="enable-background:new 0 0 18 24;" xml:space="preserve">
<path d="M9,11.2c1.6,0,2.8-1.3,2.8-2.8S10.6,5.6,9,5.6c-1.6,0-2.8,1.3-2.8,2.8S7.4,11.2,9,11.2z M9,7.5c0.5,0,0.9,0.4,0.9,0.9
	S9.5,9.4,9,9.4S8.1,9,8.1,8.4S8.5,7.5,9,7.5z"/>
<path d="M17.4,8.4C17.4,3.8,13.7,0,9,0C4.3,0,0.6,3.8,0.6,8.4c0,1.8,0.6,3.6,1.7,5.1l4.5,6c0.5,0.7,1.4,1.1,2.3,1.1s1.7-0.4,2.3-1.1
	l4.5-6C16.9,12,17.4,10.3,17.4,8.4z M14.3,12.4l-4.5,6c-0.2,0.2-0.5,0.4-0.8,0.4s-0.6-0.1-0.8-0.4l-4.5-6c-0.9-1.1-1.3-2.5-1.3-3.9
	c0-3.6,2.9-6.6,6.6-6.6c3.6,0,6.6,2.9,6.6,6.6C15.6,9.9,15.1,11.2,14.3,12.4z"/>
<path d="M13.7,23.1c0-0.5-0.4-0.9-0.9-0.9H5.2c-0.5,0-0.9,0.4-0.9,0.9S4.7,24,5.2,24h7.5C13.3,24,13.7,23.6,13.7,23.1z"/>
</svg>
