<svg width="90" height="90" viewBox="0 0 90 90" fill="none" xmlns="http://www.w3.org/2000/svg">
<g clip-path="url(#clip0_65_3006)">
<path d="M79.4531 47.0937H69.8567C68.6786 47.0937 67.5851 46.5086 66.9315 45.5282L57.0438 30.6965C55.0833 27.7557 51.8027 26 48.2683 26H10.5469C4.73133 26 0 30.7313 0 36.5469V71.7031C0 77.5187 4.73133 82.25 10.5469 82.25H13.9641C15.4153 86.3418 19.3231 89.2812 23.9062 89.2812C29.7218 89.2812 34.4531 84.5499 34.4531 78.7344C34.4531 72.9188 29.7218 68.1875 23.9062 68.1875C19.3231 68.1875 15.4155 71.1269 13.9641 75.2187H10.5469C8.60836 75.2187 7.03125 73.6416 7.03125 71.7031V36.5469C7.03125 34.6084 8.60836 33.0312 10.5469 33.0312H27.4219V43.5781C27.4219 49.3937 32.1532 54.125 37.9688 54.125H49.1931C51.1348 54.125 52.7087 52.551 52.7087 50.6094C52.7087 48.6677 51.1348 47.0937 49.1931 47.0937H37.9688C36.0302 47.0937 34.4531 45.5166 34.4531 43.5781V33.0312H48.2681C49.4464 33.0312 50.5397 33.6164 51.1933 34.5968L61.081 49.4285C63.0417 52.3693 66.3221 54.125 69.8565 54.125H79.4531C81.3916 54.125 82.9688 55.7021 82.9688 57.6406V71.7031C82.9688 73.6416 81.3916 75.2187 79.4531 75.2187H76.0359C74.5847 71.1269 70.6769 68.1875 66.0938 68.1875C61.5106 68.1875 57.603 71.1269 56.1516 75.2187H45C43.0583 75.2187 41.4844 76.7927 41.4844 78.7344C41.4844 80.676 43.0583 82.25 45 82.25H56.1517C57.603 86.3418 61.5108 89.2812 66.0939 89.2812C70.6771 89.2812 74.5847 86.3418 76.0361 82.25H79.4531C85.2687 82.25 90 77.5187 90 71.7031V57.6406C90 51.8251 85.2687 47.0937 79.4531 47.0937ZM23.9062 75.2187C25.8448 75.2187 27.4219 76.7958 27.4219 78.7344C27.4219 80.6729 25.8448 82.25 23.9062 82.25C21.9677 82.25 20.3906 80.6729 20.3906 78.7344C20.3906 76.7958 21.9677 75.2187 23.9062 75.2187ZM66.0938 82.25C64.1552 82.25 62.5781 80.6729 62.5781 78.7344C62.5781 76.7958 64.1552 75.2187 66.0938 75.2187C68.0323 75.2187 69.6094 76.7958 69.6094 78.7344C69.6094 80.6729 68.0323 82.25 66.0938 82.25Z" fill="#ED6C00"/>
<path d="M79.544 37.1578C79.0156 37.1578 78.4793 37.0383 77.9745 36.7859C76.2379 35.9175 75.5339 33.8058 76.4023 32.0691L80.8896 23.0944H72.5156C71.2971 23.0944 70.1656 22.4636 69.525 21.4271C68.8845 20.3907 68.8263 19.0965 69.3712 18.0066L76.4025 3.94412C77.2708 2.20758 79.3825 1.50357 81.1192 2.37193C82.8557 3.24029 83.5597 5.35195 82.6914 7.08867L78.204 16.0634H86.5781C87.7966 16.0634 88.9281 16.6942 89.5686 17.7306C90.2092 18.767 90.2674 20.0613 89.7225 21.1512L82.6912 35.2137C82.0754 36.4455 80.8337 37.1578 79.544 37.1578Z" fill="#663C2A"/>
</g>
<defs>
<clipPath id="clip0_65_3006">
<rect width="90" height="90" fill="white"/>
</clipPath>
</defs>
</svg>
