<svg width="90" height="90" viewBox="0 0 90 90" fill="none" xmlns="http://www.w3.org/2000/svg">
<path d="M76.1133 60.293V86.4844C76.1133 88.4261 74.5393 90.0001 72.5977 90.0001C70.656 90.0001 69.082 88.4261 69.082 86.4844V60.293C69.082 58.6702 67.9375 57.2293 66.3608 56.8667C64.4685 56.4316 63.2872 54.545 63.7223 52.6527C64.1574 50.7604 66.0438 49.5785 67.9363 50.0142C72.7508 51.1213 76.1133 55.3481 76.1133 60.293ZM57.9618 45.4989C56.4931 44.622 56.3374 43.8809 55.961 42.0907C55.961 42.0907 54.8336 35.7744 54.8206 35.7174C53.694 30.8003 50.5211 26.5708 46.1159 24.113C46.0821 24.0942 46.048 24.0759 46.0137 24.0582L42.5899 22.2935C39.5005 20.7011 35.98 20.4209 32.6779 21.5043C29.3755 22.5874 26.7054 24.8983 25.1594 28.0108L16.9933 44.4507C14.9588 48.547 13.8844 53.1299 13.8867 57.7043L13.9018 86.4862C13.9029 88.4272 15.4767 89.9999 17.4175 89.9999H17.4194C19.3611 89.9988 20.9341 88.424 20.9331 86.4825L20.918 57.7006C20.9162 54.2071 21.7366 50.707 23.2907 47.5786L31.4568 31.1385C32.1585 29.7256 33.3707 28.6768 34.8696 28.185C36.3684 27.6932 37.9665 27.8206 39.3689 28.5432L42.7374 30.2794C45.3597 31.7597 47.2537 34.2786 47.9484 37.208L49.0802 43.5369C49.5443 45.7445 50.2455 49.0806 54.3574 51.5356C56.0241 52.5311 58.1827 51.9865 59.1782 50.3196C60.1736 48.6526 59.6291 46.4942 57.9618 45.4989ZM42.5331 38.166C40.7976 37.2959 38.6849 37.9971 37.8144 39.7326L33.6853 47.9664C31.6507 52.0626 30.5761 56.6456 30.5786 61.2201L30.5937 86.4864C30.5949 88.4273 32.1687 89.9999 34.1093 89.9999H34.1114C36.0531 89.9988 37.6262 88.4238 37.6249 86.4821L37.6098 61.2161C37.608 57.7226 38.4284 54.2224 39.9765 51.1062L44.0997 42.8845C44.9699 41.149 44.2686 39.0365 42.5331 38.166Z" fill="#ED6C00"/>
<path d="M52.7495 22.8516C46.4493 22.8516 41.3237 17.726 41.3237 11.4258C41.3237 5.12561 46.4493 0 52.7495 0C59.0497 0 64.1753 5.12561 64.1753 11.4258C64.1753 17.726 59.0497 22.8516 52.7495 22.8516ZM52.7495 7.03125C50.3264 7.03125 48.355 9.00264 48.355 11.4258C48.355 13.8489 50.3264 15.8203 52.7495 15.8203C55.1727 15.8203 57.144 13.8489 57.144 11.4258C57.144 9.00264 55.1727 7.03125 52.7495 7.03125Z" fill="#663C2A"/>
</svg>
