<svg width="90" height="90" viewBox="0 0 90 90" fill="none" xmlns="http://www.w3.org/2000/svg">
<path d="M68.078 87H61.4374C56.8604 87 53.1366 83.2763 53.1366 78.6992V58.7774C53.1366 57.862 52.3919 57.1172 51.4765 57.1172H37.8632C36.9478 57.1172 36.2031 57.862 36.2031 58.7774V78.6992C36.2031 83.2763 32.4793 87 27.9023 87H22.9218C11.9369 87 3 78.063 3 67.0781V39.1426C3 32.9683 5.931 27.0465 10.8404 23.3022L33.4185 6.0816C36.9259 3.40626 41.28 1.95777 45.6992 2.00094C50.0287 2.0441 54.1005 3.42718 57.4746 6.00041C58.9326 7.11255 59.2133 9.19604 58.101 10.6542C56.989 12.1123 54.9054 12.3927 53.4474 11.2807C51.1893 9.55846 48.5603 8.67044 45.6331 8.64122C42.6845 8.60885 39.7844 9.57805 37.4459 11.3616L14.8678 28.5822C11.5946 31.0785 9.64061 35.0262 9.64061 39.1426V67.0781C9.64061 74.4014 15.5986 80.3594 22.9218 80.3594H27.9023C28.8177 80.3594 29.5625 79.6146 29.5625 78.6992V58.7774C29.5625 54.2003 33.2862 50.4766 37.8632 50.4766H51.4765C56.0535 50.4766 59.7773 54.2003 59.7773 58.7774V78.6992C59.7773 79.6146 60.522 80.3594 61.4374 80.3594H68.078C75.4013 80.3594 81.3592 74.4014 81.3592 67.0781V39.1426C81.3592 37.5032 81.0701 35.8991 80.4993 34.3753C79.8563 32.658 80.7272 30.7445 82.4447 30.1015C84.1626 29.4591 86.0754 30.3296 86.7184 32.0469C87.5687 34.318 87.9999 36.7055 87.9999 39.1427V67.0781C87.9999 78.063 79.0629 87 68.078 87Z" fill="#ED6C00"/>
<path d="M59.7773 45.6625C57.9435 45.6625 56.457 44.176 56.457 42.3422V39.0219H53.1367C48.736 38.8587 48.7393 32.543 53.1367 32.3813H56.457V29.061C56.6202 24.6603 62.9359 24.6636 63.0976 29.061V32.3813H66.4179C70.8187 32.5445 70.8154 38.8602 66.4179 39.0219H63.0976V42.3422C63.0976 44.176 61.6111 45.6625 59.7773 45.6625ZM75.5488 26.9028C73.715 26.9028 72.2285 25.4163 72.2285 23.5825V17.7719H66.4179C62.0172 17.6088 62.0205 11.293 66.4179 11.1313H72.2285V5.32079C72.3917 0.920056 78.7074 0.923376 78.8691 5.32079V11.1313H84.6796C89.0804 11.2945 89.0771 17.6102 84.6796 17.7719H78.8691V23.5825C78.8691 25.4163 77.3826 26.9028 75.5488 26.9028Z" fill="#663C2A"/>
</svg>
