<svg width="90" height="90" viewBox="0 0 90 90" fill="none" xmlns="http://www.w3.org/2000/svg">
<path d="M68.9062 90H21.0938C9.46266 90 0 80.5373 0 68.9062V21.0938C0 9.46266 9.46266 0 21.0938 0H68.9062C80.5373 0 90 9.46266 90 21.0938V68.9062C90 80.5373 80.5373 90 68.9062 90ZM21.0938 7.03125C13.3397 7.03125 7.03125 13.3397 7.03125 21.0938V68.9062C7.03125 76.6603 13.3397 82.9688 21.0938 82.9688H68.9062C76.6603 82.9688 82.9688 76.6603 82.9688 68.9062V21.0938C82.9688 13.3397 76.6603 7.03125 68.9062 7.03125H21.0938Z" fill="#ED6C00"/>
<path d="M58.8867 19.1602C56.945 19.1602 55.3711 20.7341 55.3711 22.6758V41.3086H34.8047V22.6758C34.6191 18.0113 27.9575 18.0148 27.7734 22.6758V66.9727C27.9591 71.6372 34.6206 71.6337 34.8047 66.9727V48.3398H55.3711V66.9727C55.5567 71.6372 62.2183 71.6337 62.4023 66.9727V22.6758C62.4023 20.7341 60.8284 19.1602 58.8867 19.1602Z" fill="#663C2A"/>
</svg>
