<svg width="90" height="90" viewBox="0 0 90 90" fill="none" xmlns="http://www.w3.org/2000/svg">
<path d="M70.3984 50.8203C72.2322 50.8203 73.7188 49.3338 73.7188 47.5C73.7188 45.6662 72.2322 44.1797 70.3984 44.1797C68.5647 44.1797 67.0781 45.6662 67.0781 47.5C67.0781 49.3338 68.5647 50.8203 70.3984 50.8203Z" fill="#663C2A"/>
<path fill-rule="evenodd" clip-rule="evenodd" d="M48.4844 14.9609V28.2422C48.4844 40.9029 38.2752 50.8203 25.2422 50.8203C12.2091 50.8203 2 40.9029 2 28.2422V14.9609C2 9.46848 6.46848 5 11.9609 5C17.4534 5 21.9219 9.46848 21.9219 14.9609C21.9219 20.4534 17.4534 24.9219 11.9609 24.9219C10.797 24.9219 9.67988 24.7193 8.64062 24.3508V28.2422C8.64062 37.1791 15.9329 44.1797 25.2422 44.1797C34.5515 44.1797 41.8438 37.1791 41.8438 28.2422V24.3508C40.8045 24.7193 39.6874 24.9219 38.5234 24.9219C33.031 24.9219 28.5625 20.4534 28.5625 14.9609C28.5625 9.46848 33.031 5 38.5234 5C44.0159 5 48.4844 9.46848 48.4844 14.9609ZM35.2031 14.9609C35.2031 16.7918 36.6926 18.2812 38.5234 18.2812C40.3543 18.2812 41.8438 16.7918 41.8438 14.9609C41.8438 13.1301 40.3543 11.6406 38.5234 11.6406C36.6926 11.6406 35.2031 13.1301 35.2031 14.9609ZM15.2812 14.9609C15.2812 13.1301 13.7918 11.6406 11.9609 11.6406C10.1301 11.6406 8.64062 13.1301 8.64062 14.9609C8.64062 16.7918 10.1301 18.2812 11.9609 18.2812C13.7918 18.2812 15.2812 16.7918 15.2812 14.9609ZM53.7969 47.5C53.7969 38.3459 61.2443 30.8984 70.3984 30.8984C79.5525 30.8984 87 38.3459 87 47.5C87 55.5172 81.2872 62.2253 73.7188 63.7677V73.3984C73.7188 82.5525 66.2713 90 57.1172 90H38.5234C29.3693 90 21.9219 82.5525 21.9219 73.3984V60.7812C21.9219 58.9474 23.4084 57.4609 25.2422 57.4609C27.076 57.4609 28.5625 58.9474 28.5625 60.7812V73.3984C28.5625 78.8909 33.031 83.3594 38.5234 83.3594H57.1172C62.6096 83.3594 67.0781 78.8909 67.0781 73.3984V63.7677C59.5096 62.2253 53.7969 55.5172 53.7969 47.5ZM60.4375 47.5C60.4375 52.9925 64.906 57.4609 70.3984 57.4609C75.8909 57.4609 80.3594 52.9925 80.3594 47.5C80.3594 42.0075 75.8909 37.5391 70.3984 37.5391C64.906 37.5391 60.4375 42.0075 60.4375 47.5Z" fill="#ED6C00"/>
</svg>
