<svg width="90" height="90" viewBox="0 0 90 90" fill="none" xmlns="http://www.w3.org/2000/svg">
<path d="M83.907 51.9153C82.0774 57.9482 78.5431 63.4973 75.1253 68.8637C71.0719 75.2281 67.2433 81.2396 67.2433 86.6747C67.2433 88.5084 65.7568 89.9948 63.9231 89.9948C62.0894 89.9948 60.6029 88.5084 60.6029 86.6747C60.6029 79.3046 64.9364 72.5002 69.5245 65.2965C72.7019 60.3078 75.9874 55.1494 77.5523 49.9881C81.7334 36.202 80.4814 22.6021 78.6948 13.6209C78.4327 12.3033 77.1411 11.4336 75.8171 11.6828L75.7516 11.6951C74.278 11.9716 73.697 13.4209 73.7811 14.6503C73.8298 15.359 73.8995 16.1612 73.9802 17.0898C74.7352 25.7672 76.1403 41.9189 66.7346 56.8995C66.6445 57.0431 66.1947 57.698 66.0682 57.8989C65.0908 59.4504 63.0409 59.9155 61.4894 58.9387C59.9379 57.9615 59.4724 55.9116 60.4495 54.3601C62.5095 51.0892 63.5283 48.1134 63.3957 45.7541C63.3205 44.4167 62.8626 43.3229 62.1065 42.6746C61.4899 42.1459 60.6972 41.9244 59.7495 42.0166C58.5287 42.1353 57.8079 42.8903 57.4182 43.5027C57.1689 43.8946 56.9752 44.603 56.77 45.353C56.7149 45.5542 56.6594 45.7566 56.6018 45.9589C54.002 55.0902 49.996 60.5263 46.7771 64.8943C44.5184 67.9598 42.5645 70.6111 41.5502 73.8844C41.1443 75.621 40.9694 77.4435 41.0002 79.6094C41.0392 82.3585 39.9882 84.9601 38.0405 86.936C36.0957 88.9086 33.5136 89.9951 30.7703 89.9951C26.2654 89.9951 22.247 86.9413 20.9984 82.5685C19.762 78.2388 16.8634 73.656 13.7944 68.8046C10.4138 63.4601 6.91799 57.9336 5.09307 51.9158C0.513076 36.8119 1.85824 22.048 3.79323 12.3222C4.76172 7.45456 9.52415 4.24082 14.4078 5.15618L14.471 5.16797C19.0787 6.03287 22.1788 10.2115 21.8436 15.1039C21.7916 15.8647 21.7171 16.7238 21.6386 17.6333C21.2159 22.5165 20.5696 29.9976 22.0755 38.0936C22.2357 37.9353 22.3994 37.7804 22.5707 37.6335C24.5553 35.9315 27.1557 35.1407 29.8926 35.4068C32.8796 35.6973 35.5374 37.3489 37.1844 39.9383C37.9713 41.1754 38.3239 42.4635 38.6348 43.5998C38.6838 43.7791 38.7331 43.9592 38.7844 44.1395C39.3461 46.1125 40.0616 47.8931 40.7514 49.5231C41.4657 51.2119 40.6758 53.16 38.9871 53.8745C37.2984 54.5887 35.3502 53.799 34.6357 52.1102C33.9004 50.3721 33.0597 48.282 32.398 45.9581C32.3404 45.7559 32.285 45.5535 32.2299 45.3523C32.0247 44.6023 31.831 43.8939 31.5816 43.502C31.192 42.8896 30.4713 42.1346 29.2504 42.0159C28.3026 41.9238 27.5101 42.1452 26.8934 42.674C26.1372 43.3224 25.6795 44.416 25.6043 45.7536C25.4729 48.0903 26.4998 51.0661 28.574 54.3594C29.5513 55.9111 29.0857 57.9609 27.5342 58.9382C26.9845 59.2844 26.3724 59.4495 25.7677 59.4495C24.6649 59.4495 23.5863 58.9004 22.9553 57.8984C22.8288 57.6977 22.3791 57.0428 22.2888 56.899C12.8734 41.9025 14.2716 25.7426 15.023 17.0609C15.1025 16.1437 15.1711 15.3516 15.219 14.6502C15.3032 13.4207 14.7222 11.9715 13.2474 11.6946L13.1845 11.6828C11.8574 11.4334 10.5677 12.3023 10.3059 13.6179C8.51897 22.5996 7.26644 36.2001 11.4478 49.9881C13.0115 55.1443 16.2626 60.2839 19.4064 65.2542C22.7379 70.5213 25.8846 75.496 27.3838 80.7447C27.8225 82.2814 29.2152 83.3545 30.7705 83.3545C31.7222 83.3545 32.625 82.9707 33.3121 82.2738C34.002 81.5739 34.3744 80.6612 34.3607 79.7038C34.3212 76.9305 34.561 74.5596 35.1153 72.2423C35.1307 72.1779 35.1478 72.1143 35.167 72.051C36.5046 67.6414 38.8979 64.3934 41.4317 60.9549C44.6335 56.6098 47.9442 52.1171 50.2155 44.1401C50.267 43.9597 50.3161 43.7794 50.3651 43.6001C50.6762 42.4638 51.0286 41.1757 51.8155 39.9385C53.4624 37.3491 56.1202 35.6975 59.1072 35.4071C61.8438 35.1412 64.4444 35.9319 66.429 37.6336C66.6053 37.7849 66.7735 37.9444 66.9378 38.1076C68.4385 30.02 67.7893 22.5447 67.3646 17.6652C67.2846 16.7439 67.2089 15.8736 67.1561 15.104C66.8209 10.2116 69.921 6.03304 74.5275 5.1683L74.5928 5.15602C79.4767 4.23949 84.2385 7.45539 85.2071 12.3254C87.1419 22.0505 88.4866 36.8134 83.907 51.9153ZM44.5 29.0698C46.7921 29.0698 48.6502 27.2117 48.6502 24.9196C48.6502 22.6275 46.7921 20.7694 44.5 20.7694C42.2079 20.7694 40.3498 22.6275 40.3498 24.9196C40.3498 27.2117 42.2079 29.0698 44.5 29.0698Z" fill="#ED6C00"/>
<path d="M58.2783 29.07C56.4446 29.07 54.9582 27.5835 54.9582 25.7498V20.5709C54.9582 19.2236 54.3209 17.9284 53.2535 17.1061L47.3394 12.5512C45.7502 11.3388 43.5146 11.3355 41.9095 12.5507L35.8874 17.2572C34.8196 18.0917 34.2072 19.3476 34.2072 20.7029V25.7497C34.2072 27.5834 32.7208 29.0698 30.8871 29.0698C29.0533 29.0698 27.5669 27.5834 27.5669 25.7497V20.703C27.5669 17.2899 29.1093 14.1271 31.7984 12.0253L37.8385 7.30486C37.8488 7.29689 37.859 7.28892 37.8695 7.28095C41.8466 4.24749 47.402 4.24749 51.3791 7.28095L57.3054 11.8453C59.9935 13.9158 61.5985 17.1777 61.5985 20.5709V25.75C61.5985 27.5835 60.1121 29.07 58.2783 29.07Z" fill="#663C2A"/>
</svg>
