<svg width="90" height="90" viewBox="0 0 90 90" fill="none" xmlns="http://www.w3.org/2000/svg">
<path d="M72.1562 65.7841C65.9961 65.7841 60.9844 60.7724 60.9844 54.6122C60.9844 48.4521 65.9961 43.4404 72.1562 43.4404C78.3164 43.4404 83.3281 48.4521 83.3281 54.6122C83.3281 60.7724 78.3164 65.7841 72.1562 65.7841ZM72.1562 50.3154C69.787 50.3154 67.8594 52.2429 67.8594 54.6122C67.8594 56.9815 69.787 58.9091 72.1562 58.9091C74.5255 58.9091 76.4531 56.9815 76.4531 54.6122C76.4531 52.2429 74.5255 50.3154 72.1562 50.3154ZM44.6562 67.6747C38.4961 67.6747 33.4844 62.663 33.4844 56.5029C33.4844 50.3427 38.4961 45.331 44.6562 45.331C50.8164 45.331 55.8281 50.3427 55.8281 56.5029C55.8281 62.663 50.8164 67.6747 44.6562 67.6747ZM44.6562 52.206C42.287 52.206 40.3594 54.1336 40.3594 56.5029C40.3594 58.8722 42.287 60.7997 44.6562 60.7997C47.0255 60.7997 48.9531 58.8722 48.9531 56.5029C48.9531 54.1336 47.0255 52.206 44.6562 52.206ZM24.0252 85.7221C24.1373 83.827 22.692 82.1997 20.7967 82.0877C13.5508 81.659 7.875 75.63 7.875 68.3622V39.4407C7.875 35.1792 9.89797 31.092 13.2863 28.5077L36.6613 10.6793C41.5711 6.9348 48.4291 6.9348 53.3387 10.6793L76.7137 28.5077C80.102 31.092 82.125 35.179 82.125 39.4407C82.125 41.3392 83.664 42.8782 85.5625 42.8782C87.461 42.8782 89 41.3392 89 39.4407C89 33.0485 85.9655 26.9177 80.883 23.0412L57.508 5.21278C50.1434 -0.404262 39.8566 -0.404262 32.492 5.21278L9.11697 23.0412C4.03445 26.9177 1 33.0483 1 39.4407V68.3622C1 79.2639 9.51744 88.3073 20.3908 88.9508C20.4599 88.9547 20.5286 88.9568 20.597 88.9568C22.4024 88.9566 23.9171 87.5481 24.0252 85.7221ZM36.4062 85.5497C36.4062 81.8536 39.4512 78.8466 43.1938 78.8466H47.75C49.6485 78.8466 51.1875 77.3076 51.1875 75.4091C51.1875 73.5106 49.6485 71.9716 47.75 71.9716H43.1938C35.6601 71.9716 29.5312 78.0627 29.5312 85.5497C29.5312 87.4483 31.0702 88.9872 32.9688 88.9872C34.8673 88.9872 36.4062 87.4481 36.4062 85.5497Z" fill="#ED6C00"/>
<path d="M85.5625 88.9868C83.664 88.9868 82.125 87.4478 82.125 85.5493C82.125 80.5369 78.0215 76.459 72.9778 76.459H70.6472C65.6033 76.459 61.5 80.5369 61.5 85.5493C61.5 87.4478 59.961 88.9868 58.0625 88.9868C56.164 88.9868 54.625 87.4478 54.625 85.5493C54.625 76.746 61.8125 69.584 70.6472 69.584H72.9778C81.8125 69.584 89 76.746 89 85.5493C89 87.4476 87.461 88.9868 85.5625 88.9868Z" fill="#663C2A"/>
</svg>
