<svg width="90" height="90" viewBox="0 0 90 90" fill="none" xmlns="http://www.w3.org/2000/svg">
<path d="M31.2422 43.5156C18.4264 43.5156 8 53.9421 8 66.7578C8 79.5736 18.4264 90 31.2422 90C44.0579 90 54.4844 79.5736 54.4844 66.7578C54.4844 53.9421 44.0579 43.5156 31.2422 43.5156ZM31.2422 83.3594C22.0881 83.3594 14.6406 75.9119 14.6406 66.7578C14.6406 57.6037 22.0881 50.1562 31.2422 50.1562C40.3963 50.1562 47.8438 57.6037 47.8438 66.7578C47.8438 75.9119 40.3963 83.3594 31.2422 83.3594Z" fill="#ED6C00"/>
<path d="M67.7656 56.7969V60.1172C67.7656 61.951 69.2521 63.4375 71.0859 63.4375C72.9197 63.4375 74.4062 61.951 74.4062 60.1172V40.1953C74.4062 31.0412 66.9588 23.5938 57.8047 23.5938H34.5625V14.9609C34.5625 9.46848 30.094 5 24.6016 5H17.9609C16.1271 5 14.6406 6.4865 14.6406 8.32031C14.6406 10.1541 16.1271 11.6406 17.9609 11.6406H24.6016C26.4324 11.6406 27.9219 13.1301 27.9219 14.9609V33.5547C27.9219 35.3885 29.4084 36.875 31.2422 36.875C33.076 36.875 34.5625 35.3885 34.5625 33.5547V30.2344H57.8047C63.2971 30.2344 67.7656 34.7029 67.7656 40.1953V50.1562H61.6724C59.8385 50.1562 58.352 51.6428 58.352 53.4766C58.352 55.3104 59.8385 56.7969 61.6724 56.7969H67.7656Z" fill="#ED6C00"/>
<path d="M71.0859 70.0781C65.5935 70.0781 61.125 74.5466 61.125 80.0391C61.125 85.5315 65.5935 90 71.0859 90C76.5784 90 81.0469 85.5315 81.0469 80.0391C81.0469 74.5466 76.5784 70.0781 71.0859 70.0781ZM71.0859 83.3594C69.2551 83.3594 67.7656 81.8699 67.7656 80.0391C67.7656 78.2082 69.2551 76.7188 71.0859 76.7188C72.9168 76.7188 74.4062 78.2082 74.4062 80.0391C74.4062 81.8699 72.9168 83.3594 71.0859 83.3594Z" fill="#ED6C00"/>
<path d="M31.2422 70.0781C33.0759 70.0781 34.5625 68.5916 34.5625 66.7578C34.5625 64.9241 33.0759 63.4375 31.2422 63.4375C29.4084 63.4375 27.9219 64.9241 27.9219 66.7578C27.9219 68.5916 29.4084 70.0781 31.2422 70.0781Z" fill="#663C2A"/>
</svg>
