<svg width="30" height="30" viewBox="0 0 30 30" fill="none" xmlns="http://www.w3.org/2000/svg">
<g opacity="0.8">
<path fill-rule="evenodd" clip-rule="evenodd" d="M30 15C30 23.2843 23.2843 30 15 30C6.71573 30 0 23.2843 0 15C0 6.71573 6.71573 0 15 0C23.2843 0 30 6.71573 30 15ZM19.4504 15.8369L19.7521 13.2239C19.761 13.1552 19.7553 13.0853 19.7353 13.019C19.7153 12.9527 19.6815 12.8913 19.6361 12.839C19.5907 12.7867 19.5347 12.7446 19.4719 12.7154C19.409 12.6863 19.3407 12.6707 19.2714 12.6699H16.2254V10.4864C16.2254 9.50113 16.4947 8.81932 17.8805 8.81932H19.1623C19.227 8.81865 19.2908 8.80523 19.3502 8.77984C19.4096 8.75444 19.4635 8.71756 19.5086 8.67132C19.5537 8.62508 19.5893 8.57038 19.6132 8.51037C19.6372 8.45035 19.649 8.3862 19.6481 8.32159V6.12273C19.649 6.05812 19.6372 5.99396 19.6132 5.93395C19.5893 5.87393 19.5537 5.81924 19.5086 5.77299C19.4635 5.72675 19.4096 5.68988 19.3502 5.66448C19.2908 5.63908 19.227 5.62567 19.1623 5.625H17.0726C14.5226 5.625 12.784 7.21875 12.784 10.1472V12.6699H10.7283C10.6638 12.6708 10.6001 12.6844 10.5409 12.7098C10.4817 12.7353 10.4281 12.7723 10.3831 12.8185C10.3382 12.8647 10.3028 12.9193 10.2789 12.9792C10.2551 13.0391 10.2433 13.1031 10.2442 13.1676L10.2544 15.7807C10.2537 15.8449 10.2657 15.9087 10.2897 15.9683C10.3137 16.0279 10.3491 16.0822 10.3941 16.1281C10.439 16.174 10.4926 16.2106 10.5517 16.2358C10.6108 16.261 10.6743 16.2743 10.7385 16.275H12.784V24.0204C12.7821 24.0663 12.7896 24.1121 12.8059 24.1551C12.8222 24.198 12.847 24.2372 12.8789 24.2704C12.9107 24.3035 12.9489 24.3298 12.9912 24.3478C13.0335 24.3658 13.0789 24.375 13.1249 24.375H15.8879C15.9797 24.3728 16.0669 24.3345 16.1307 24.2685C16.1945 24.2024 16.2298 24.114 16.2288 24.0221L16.2425 16.275H18.9697C19.0896 16.2736 19.2048 16.2282 19.2934 16.1474C19.382 16.0666 19.4379 15.9562 19.4504 15.8369Z" fill="#3A559F"/>
</g>
</svg>
