<svg width="20" height="21" viewBox="0 0 20 21" fill="none" xmlns="http://www.w3.org/2000/svg">
<path d="M10 0.5C9.75484 0.500059 9.51974 0.597474 9.34638 0.770829C9.17303 0.944183 9.07561 1.17928 9.07556 1.42444V11.9707L5.54022 8.43533C5.45437 8.34949 5.35245 8.2814 5.24027 8.23495C5.12811 8.1885 5.00788 8.1646 4.88648 8.16461C4.64128 8.16463 4.40614 8.26205 4.23278 8.43544C4.05941 8.60884 3.96203 8.844 3.96205 9.08919C3.96207 9.33438 4.0595 9.56952 4.23289 9.74289L9.34622 14.8556C9.51965 15.0289 9.75481 15.1262 10 15.1262C10.2452 15.1262 10.4803 15.0289 10.6538 14.8556L15.7671 9.742C15.9405 9.56864 16.0379 9.33349 16.0379 9.0883C16.038 8.84311 15.9406 8.60795 15.7672 8.43456C15.5939 8.26116 15.3587 8.16374 15.1135 8.16372C14.8683 8.1637 14.6332 8.26108 14.4598 8.43444L10.9244 11.9707V1.42444C10.9244 1.17928 10.827 0.944183 10.6536 0.770829C10.4803 0.597474 10.2452 0.500059 10 0.5Z" fill="#949494"/>
<path d="M0.924444 12.7233C0.679267 12.7233 0.44413 12.8207 0.270763 12.9941C0.0973964 13.1675 0 13.4026 0 13.6478V16.694C0.00111756 17.7031 0.402465 18.6705 1.11599 19.384C1.82951 20.0975 2.79693 20.4989 3.806 20.5H16.194C17.2031 20.4989 18.1705 20.0975 18.884 19.384C19.5975 18.6705 19.9989 17.7031 20 16.694V13.6478C20 13.5264 19.9761 13.4062 19.9296 13.294C19.8832 13.1818 19.8151 13.0799 19.7292 12.9941C19.6434 12.9083 19.5415 12.8402 19.4293 12.7937C19.3172 12.7472 19.197 12.7233 19.0756 12.7233C18.9542 12.7233 18.8339 12.7472 18.7218 12.7937C18.6096 12.8402 18.5077 12.9083 18.4219 12.9941C18.336 13.0799 18.2679 13.1818 18.2215 13.294C18.175 13.4062 18.1511 13.5264 18.1511 13.6478V16.694C18.1505 17.2129 17.9441 17.7103 17.5772 18.0772C17.2103 18.4441 16.7129 18.6505 16.194 18.6511H3.806C3.28712 18.6505 2.78966 18.4441 2.42276 18.0772C2.05586 17.7103 1.84948 17.2129 1.84889 16.694V13.6478C1.84892 13.5264 1.82503 13.4061 1.77858 13.294C1.73213 13.1818 1.66404 13.0799 1.57819 12.994C1.49234 12.9082 1.39042 12.8401 1.27825 12.7936C1.16608 12.7472 1.04585 12.7233 0.924444 12.7233Z" fill="#949494"/>
</svg>
