<svg width="18" height="24" viewBox="0 0 18 24" fill="none" xmlns="http://www.w3.org/2000/svg">
<path d="M9 11.25C10.5508 11.25 11.8125 9.98831 11.8125 8.4375C11.8125 6.88669 10.5508 5.625 9 5.625C7.44919 5.625 6.1875 6.88669 6.1875 8.4375C6.1875 9.98831 7.44919 11.25 9 11.25ZM9 7.5C9.51694 7.5 9.9375 7.92056 9.9375 8.4375C9.9375 8.95444 9.51694 9.375 9 9.375C8.48306 9.375 8.0625 8.95444 8.0625 8.4375C8.0625 7.92056 8.48306 7.5 9 7.5Z" fill="#3A3A3A"/>
<path d="M17.4375 8.4375C17.4375 3.78506 13.6524 0 9 0C4.34756 0 0.5625 3.78506 0.5625 8.4375C0.5625 10.278 1.14478 12.0272 2.24644 13.496L6.74916 19.4991C7.27805 20.2041 8.1195 20.625 9 20.625C9.8805 20.625 10.722 20.2041 11.2509 19.499L15.7536 13.496C16.8552 12.0272 17.4375 10.278 17.4375 8.4375ZM14.2536 12.3709L9.75098 18.3739C9.57164 18.6129 9.29794 18.75 9 18.75C8.70206 18.75 8.42836 18.6129 8.24906 18.374L3.74639 12.3709C2.89013 11.2293 2.4375 9.86911 2.4375 8.4375C2.4375 4.81894 5.38144 1.875 9 1.875C12.6186 1.875 15.5625 4.81894 15.5625 8.4375C15.5625 9.86911 15.1099 11.2293 14.2536 12.3709Z" fill="#3A3A3A"/>
<path d="M13.6875 23.0625C13.6875 22.5447 13.2678 22.125 12.75 22.125H5.25C4.73222 22.125 4.3125 22.5447 4.3125 23.0625C4.3125 23.5803 4.73222 24 5.25 24H12.75C13.2678 24 13.6875 23.5803 13.6875 23.0625Z" fill="#3A3A3A"/>
</svg>
