<svg width="30" height="30" viewBox="0 0 30 30" fill="none" xmlns="http://www.w3.org/2000/svg">
<path fill-rule="evenodd" clip-rule="evenodd" d="M30 15C30 23.2843 23.2843 30 15 30C6.71573 30 0 23.2843 0 15C0 6.71573 6.71573 0 15 0C23.2843 0 30 6.71573 30 15ZM24.3017 15.2269C24.3372 15.0393 24.3617 14.8498 24.375 14.6593C24.383 14.4154 24.3778 14.1713 24.3596 13.928C24.2506 12.0155 23.2346 10.2922 21.6477 9.02234C19.9534 7.67063 17.6011 6.81836 15 6.81836C9.82159 6.81836 5.625 10.1508 5.625 14.2689C5.625 16.9434 7.39773 19.2905 10.0568 20.6047C11.2215 21.1757 12.4787 21.5341 13.7693 21.6633C13.904 21.6783 14.0272 21.7461 14.1119 21.8519C14.1966 21.9577 14.2359 22.0928 14.221 22.2275L14.025 23.9883C14.0159 24.0787 14.0312 24.1699 14.0691 24.2525C14.107 24.3351 14.1663 24.4062 14.2408 24.4582C14.3153 24.5103 14.4023 24.5416 14.4929 24.5489C14.5835 24.5562 14.6744 24.5392 14.7562 24.4996C18.6358 22.6263 20.9574 20.7002 22.3432 19.0314C22.5937 18.728 23.4136 17.5758 23.5841 17.2724C23.9403 16.6374 24.1831 15.9452 24.3017 15.2269ZM12.5216 16.0747C12.4972 16.0162 12.4613 15.9631 12.416 15.9187C12.3719 15.874 12.3194 15.8386 12.2614 15.8146C12.2034 15.7906 12.1412 15.7785 12.0785 15.779H10.6398V12.6375C10.6404 12.5425 10.6127 12.4494 10.5602 12.3702C10.5077 12.291 10.4328 12.2292 10.3451 12.1926C10.2574 12.1561 10.1608 12.1464 10.0676 12.1649C9.97435 12.1835 9.88876 12.2293 9.82166 12.2966C9.77647 12.341 9.74067 12.3941 9.71637 12.4527C9.69207 12.5112 9.67976 12.5741 9.68019 12.6375V16.2596C9.68064 16.387 9.73142 16.509 9.82147 16.599C9.91152 16.6891 10.0335 16.7399 10.1609 16.7403H12.0785C12.1415 16.7403 12.204 16.7279 12.2622 16.7037C12.3204 16.6795 12.3733 16.6441 12.4178 16.5994C12.4623 16.5548 12.4975 16.5018 12.5215 16.4435C12.5455 16.3852 12.5577 16.3227 12.5575 16.2596C12.5581 16.1962 12.5459 16.1333 12.5216 16.0747ZM13.9775 12.5337V16.3638C13.977 16.4631 13.9374 16.5582 13.8671 16.6285C13.7969 16.6987 13.7018 16.7383 13.6025 16.7388H13.3877C13.2882 16.7388 13.1929 16.6993 13.1225 16.629C13.0522 16.5586 13.0127 16.4633 13.0127 16.3638V12.5337C13.0127 12.4342 13.0522 12.3389 13.1225 12.2685C13.1929 12.1982 13.2882 12.1587 13.3877 12.1587H13.5974C13.647 12.1583 13.6962 12.1676 13.7422 12.1862C13.7881 12.2049 13.83 12.2324 13.8653 12.2672C13.9006 12.3021 13.9287 12.3435 13.948 12.3893C13.9672 12.435 13.9772 12.4841 13.9775 12.5337ZM18.4297 16.2394V12.6377C18.4275 12.5122 18.3761 12.3925 18.2865 12.3045C18.1969 12.2166 18.0763 12.1673 17.9508 12.1673C17.824 12.1682 17.7027 12.2189 17.6131 12.3086C17.5234 12.3982 17.4727 12.5195 17.4718 12.6463V14.8622C17.4718 14.8622 17.3184 14.661 17.0968 14.3747C16.5394 13.6417 15.5491 12.3531 15.5286 12.3292C15.4823 12.2747 15.4245 12.2312 15.3594 12.2017C15.2942 12.1723 15.2234 12.1576 15.1519 12.1588C15.0256 12.167 14.9073 12.2235 14.8214 12.3164C14.7354 12.4093 14.6884 12.5316 14.69 12.6582V16.2582C14.6899 16.325 14.7038 16.391 14.7308 16.4521C14.7578 16.5132 14.7973 16.5679 14.8468 16.6127C14.9154 16.6757 15.0009 16.7173 15.0928 16.7325C15.1847 16.7476 15.279 16.7356 15.3642 16.698C15.4493 16.6604 15.5217 16.5988 15.5724 16.5206C15.6231 16.4425 15.65 16.3513 15.6496 16.2582V14.061C15.6496 14.061 16.0042 14.5213 16.4133 15.048C16.6069 15.2977 16.8126 15.564 16.9985 15.8046L17.0004 15.8071L17.0006 15.8073L17.001 15.8078C17.3392 16.2456 17.6108 16.5971 17.6218 16.6059C17.7098 16.6895 17.826 16.7369 17.9474 16.7389C18.0768 16.7345 18.1995 16.6799 18.2895 16.5867C18.3796 16.4935 18.4298 16.369 18.4297 16.2394ZM20.1137 14.9268V15.779H21.5506C21.616 15.7751 21.6816 15.7847 21.7432 15.807C21.8048 15.8294 21.8612 15.8641 21.9088 15.909C21.9565 15.9539 21.9946 16.0082 22.0205 16.0683C22.0465 16.1285 22.0599 16.1933 22.0599 16.2589C22.0599 16.3244 22.0465 16.3892 22.0205 16.4494C21.9946 16.5096 21.9565 16.5638 21.9088 16.6087C21.8612 16.6537 21.8048 16.6884 21.7432 16.7107C21.6816 16.7331 21.616 16.7426 21.5506 16.7387H19.6279C19.5007 16.7383 19.3789 16.6874 19.2891 16.5973C19.1993 16.5072 19.1489 16.3852 19.1489 16.258V12.6375C19.1494 12.5107 19.2 12.3891 19.2897 12.2994C19.3794 12.2096 19.501 12.159 19.6279 12.1586H21.5455C21.6109 12.1547 21.6764 12.1642 21.738 12.1865C21.7997 12.2089 21.856 12.2436 21.9037 12.2885C21.9514 12.3335 21.9894 12.3877 22.0154 12.4479C22.0414 12.508 22.0548 12.5729 22.0548 12.6384C22.0548 12.7039 22.0414 12.7688 22.0154 12.8289C21.9894 12.8891 21.9514 12.9433 21.9037 12.9883C21.856 13.0332 21.7997 13.0679 21.738 13.0903C21.6764 13.1126 21.6109 13.1221 21.5455 13.1182H20.1137V13.9705H21.5506C21.6776 13.9705 21.7995 14.021 21.8893 14.1108C21.9791 14.2006 22.0296 14.3225 22.0296 14.4495C22.0296 14.5765 21.9791 14.6984 21.8893 14.7882C21.7995 14.878 21.6776 14.9285 21.5506 14.9285L20.1137 14.9268Z" fill="#3AB74E"/>
</svg>
