<svg width="30" height="30" viewBox="0 0 30 30" fill="none" xmlns="http://www.w3.org/2000/svg">
<g opacity="0.8">
<path fill-rule="evenodd" clip-rule="evenodd" d="M15 0C6.71573 0 0 6.71573 0 15C0 23.2843 6.71573 30 15 30C23.2843 30 30 23.2843 30 15C30 6.71573 23.2843 0 15 0ZM21.1789 8.47669C22.3209 8.63692 23.5618 9.33578 23.9368 10.4898C24.5215 13.4687 24.5215 16.5329 23.9368 19.5119C23.5653 20.6727 22.3209 21.3648 21.1789 21.525C17.0711 21.9614 12.9287 21.9614 8.82095 21.525C7.67891 21.3648 6.438 20.6642 6.063 19.5119C5.47835 16.5329 5.47835 13.4687 6.063 10.4898C6.43459 9.32896 7.67891 8.63692 8.82095 8.47669C12.9287 8.04032 17.0711 8.04032 21.1789 8.47669ZM18.6067 15L12.7567 11.4068V18.5932C13.7686 17.9713 14.7673 17.358 15.7676 16.7438C16.7085 16.166 17.6508 15.5874 18.6067 15Z" fill="white"/>
</g>
</svg>
