<svg width="30" height="30" viewBox="0 0 30 30" fill="none" xmlns="http://www.w3.org/2000/svg">
<g opacity="0.8">
<path fill-rule="evenodd" clip-rule="evenodd" d="M30 15C30 23.2843 23.2843 30 15 30C6.71573 30 0 23.2843 0 15C0 6.71573 6.71573 0 15 0C23.2843 0 30 6.71573 30 15ZM22.7319 11.09C23.3525 10.5852 23.8943 9.99055 24.3393 9.32576C24.3651 9.28775 24.3779 9.24235 24.3756 9.19643C24.3733 9.15052 24.3561 9.1066 24.3267 9.07133C24.2972 9.03606 24.257 9.01136 24.2122 9.00099C24.1674 8.99061 24.1205 8.99512 24.0785 9.01383C23.662 9.19831 23.2295 9.34437 22.7864 9.4502C23.2776 8.98372 23.6434 8.40102 23.8501 7.75588C23.8627 7.71496 23.8626 7.6712 23.85 7.63029C23.8373 7.58939 23.8127 7.55325 23.7792 7.52657C23.7457 7.49989 23.705 7.48392 23.6623 7.48074C23.6196 7.47755 23.5769 7.4873 23.5398 7.50872C22.924 7.87453 22.2587 8.14952 21.5643 8.3252C21.5242 8.33583 21.483 8.34156 21.4415 8.34224C21.3157 8.34009 21.1947 8.29292 21.1006 8.20929C20.362 7.55809 19.4109 7.19923 18.4262 7.2002C17.992 7.20136 17.5604 7.26802 17.1461 7.39792C16.2628 7.674 15.5056 8.25365 15.0086 9.03429C14.7718 9.40016 14.5988 9.80364 14.4972 10.2275C14.3813 10.7116 14.349 11.212 14.4018 11.707C14.4041 11.7275 14.4021 11.7482 14.3959 11.7679C14.3897 11.7875 14.3796 11.8057 14.366 11.8212C14.3519 11.8367 14.3348 11.8492 14.3158 11.858C14.2967 11.8668 14.2761 11.8717 14.2552 11.8724H14.2398C12.8261 11.7453 11.4523 11.3355 10.1999 10.6673C8.94758 9.99913 7.84224 9.08615 6.9495 7.98258C6.92769 7.95733 6.90019 7.9376 6.86928 7.92501C6.83837 7.91242 6.80492 7.90733 6.77166 7.91016C6.73841 7.91298 6.70629 7.92365 6.67795 7.94127C6.64961 7.9589 6.62584 7.98298 6.6086 8.01156C6.15909 8.78703 5.97965 9.68974 6.09842 10.5782C6.21718 11.4666 6.62744 12.2905 7.26485 12.9206C6.94296 12.8444 6.6332 12.724 6.34439 12.5627C6.31215 12.545 6.2759 12.536 6.23915 12.5366C6.20241 12.5371 6.16642 12.5471 6.13468 12.5656C6.10294 12.5841 6.07654 12.6105 6.05803 12.6423C6.03952 12.674 6.02954 12.71 6.02905 12.7468C6.0201 13.5301 6.23831 14.2992 6.65728 14.9611C7.07625 15.623 7.67804 16.1493 8.38984 16.4763H8.30462C8.07583 16.476 7.84757 16.4543 7.6228 16.4116C7.58677 16.4047 7.54958 16.4074 7.5149 16.4193C7.48022 16.4313 7.44924 16.452 7.42499 16.4795C7.40075 16.507 7.38408 16.5404 7.37662 16.5763C7.36916 16.6122 7.37118 16.6494 7.38246 16.6843C7.61241 17.392 8.03274 18.0227 8.59739 18.5074C9.16204 18.9921 9.84921 19.312 10.5836 19.432C9.35162 20.2639 7.8991 20.7085 6.41257 20.7087H5.94553C5.87656 20.7081 5.80937 20.7306 5.75469 20.7726C5.7 20.8146 5.66097 20.8737 5.64382 20.9405C5.62691 21.0081 5.63258 21.0793 5.65998 21.1433C5.68737 21.2074 5.73498 21.2607 5.79553 21.2951C7.48639 22.2778 9.40686 22.7964 11.3626 22.7985C12.5975 22.8048 13.8255 22.6138 15.0001 22.2326C16.7827 21.6496 18.3758 20.5982 19.6126 19.1883C20.5371 18.1355 21.261 16.9223 21.7484 15.6087C22.2215 14.3554 22.4674 13.0279 22.4745 11.6883V11.6252C22.4743 11.5223 22.4973 11.4208 22.5419 11.3281C22.5864 11.2354 22.6514 11.154 22.7319 11.09Z" fill="#50ABF1"/>
</g>
</svg>
