<svg width="181" height="61" viewBox="0 0 181 61" fill="none" xmlns="http://www.w3.org/2000/svg">
<path d="M93.8003 39.441C91.041 38.8153 88.7556 37.7515 86.9336 36.2498C85.2169 34.8314 83.8267 32.9334 82.763 30.5452H79.8878V35.7805C81.5729 35.551 83.3633 35.2903 85.2801 34.9879L85.4065 37.5847C82.3417 38.0748 78.6977 38.638 74.4534 39.2637L73.7793 36.5731C74.0637 36.5418 74.506 36.4792 75.1274 36.3958C75.8541 36.3123 76.4228 36.2498 76.823 36.1976V30.5348H72.7051V27.938H76.8441V17.165H92.5891V19.5636H79.8878V20.8777H91.894V23.1511H79.8878V24.3817H91.894V26.6552H79.8878V27.938H95.18V30.5348H92.5154L94.4322 31.8697C93.1052 32.8291 91.5676 33.7573 89.8403 34.6646C91.4728 35.6657 93.4106 36.3749 95.6539 36.7921C94.9061 37.5638 94.2848 38.4502 93.7792 39.4306L93.8003 39.441ZM87.8393 33.1107C89.2084 32.3181 90.4722 31.4629 91.6623 30.5452H85.8698C86.407 31.4838 87.0599 32.339 87.8393 33.1107Z" fill="#595757"/>
<path d="M102.531 39.4931C101.847 38.8465 101.057 38.2625 100.162 37.7411C100.814 37.2614 101.436 36.6669 102.036 35.9369C102.637 35.2173 103.11 34.4769 103.458 33.7364L106.228 34.5499C105.796 35.4363 105.238 36.3332 104.553 37.2405C103.89 38.127 103.216 38.8778 102.531 39.4931ZM100.362 33.5591V30.9936H102.605V21.8267H100.657V19.2612H102.605V16.6436H105.28V19.2612H108.376V16.6436H111.094V19.2612H112.789V21.8267H111.094V30.9936H112.61V33.5591H100.362ZM105.28 23.2554H108.376V21.8267H105.28V23.2554ZM105.28 27.062H108.376V25.5081H105.28V27.062ZM105.28 30.9936H108.376V29.3146H105.28V30.9936ZM113.969 39.4723C113.716 39.2116 113.347 38.8987 112.842 38.5337C112.347 38.1687 111.936 37.9288 111.62 37.8141C111.652 37.7619 111.694 37.6994 111.757 37.6055C111.82 37.5117 111.852 37.4491 111.873 37.3969L109.798 38.5545C109.261 37.5117 108.376 36.2706 107.134 34.821L109.377 33.6113C110.672 35.0296 111.578 36.1455 112.073 36.9694C112.726 35.6032 113.158 33.872 113.4 31.7758C113.569 30.3783 113.653 28.6159 113.653 26.4884V17.4153H122.889V36.1455C122.889 36.8859 122.805 37.4595 122.636 37.8767C122.468 38.2834 122.173 38.6067 121.741 38.8361C121.046 39.2116 119.709 39.3888 117.75 39.3576C117.613 38.3564 117.328 37.4178 116.897 36.5626C117.497 36.6148 118.297 36.6252 119.287 36.6148H119.508C119.845 36.6148 120.003 36.4375 120.003 36.0933V31.2231H116.212C115.875 34.8002 115.127 37.5429 113.969 39.4514V39.4723ZM116.391 28.6263H120.014V25.5915H116.423V26.5092C116.423 27.4165 116.423 28.1257 116.402 28.6367L116.391 28.6263ZM116.412 22.9947H120.003V20.1059H116.412V22.9947Z" fill="#595757"/>
<path d="M131.357 39.514L128.492 38.3042C129.735 36.8338 130.767 35.1443 131.557 33.215L134.422 34.0076C133.453 36.1976 132.431 38.0331 131.357 39.514ZM129.608 32.9855V17.2693H137.539V23.3702C138.866 23.0051 139.877 22.515 140.562 21.8893C141.141 21.3574 141.562 20.6587 141.804 19.7618H138.266V17.1963H151.114C151.093 17.53 151.083 17.8533 151.062 18.187C150.956 19.9286 150.841 21.201 150.714 21.9935C150.567 22.8487 150.346 23.4223 150.061 23.7247C149.661 24.1732 149.092 24.4339 148.334 24.5173C147.618 24.6008 146.659 24.6216 145.469 24.5695C145.406 23.683 145.164 22.9009 144.743 22.223C145.596 22.2856 146.312 22.3273 146.912 22.3273C147.249 22.3273 147.492 22.2438 147.66 22.077C147.881 21.858 148.039 21.0967 148.155 19.7826H144.711C144.427 21.1697 143.932 22.2751 143.237 23.099C142.426 24.0585 141.225 24.8093 139.645 25.3516H150.325V32.7144H138.992V25.5498L138.94 25.5706C138.645 24.8093 138.16 24.1315 137.518 23.5162V31.8384H132.378V32.996H129.587L129.608 32.9855ZM132.399 23.0469H134.822V19.8348H132.399V23.0469ZM132.399 29.1999H134.822V25.6124H132.399V29.1999ZM136.17 39.3054C136.17 37.8245 136.012 36.1038 135.696 34.1431L138.445 33.8198C138.845 35.8326 139.056 37.5117 139.098 38.857L136.18 39.3054H136.17ZM142.257 39.2011C142.089 37.8141 141.657 36.1142 140.962 34.091L143.753 33.6008C144.479 35.4259 144.974 37.1049 145.227 38.6171L142.257 39.2116V39.2011ZM141.804 30.3053H147.397V27.6564H141.804V30.3053ZM148.819 39.3993C148.302 37.9809 147.397 36.208 146.101 34.0597L148.797 33.0273C150.23 35.2382 151.188 36.9589 151.694 38.1895L148.829 39.3993H148.819Z" fill="#595757"/>
<path d="M169.861 39.4723C169.492 39.0447 169.008 38.5754 168.387 38.0644H162.794V39.1803H160.646V32.7561L160.519 32.9021C160.519 32.9021 160.467 32.8395 160.414 32.777C160.182 32.5162 159.993 32.2972 159.845 32.1304C159.529 34.9983 159.003 37.3552 158.276 39.2011C158.076 38.9404 157.76 38.6484 157.339 38.3251C156.917 38.0018 156.549 37.7828 156.233 37.6681C156.844 36.0203 157.265 33.9346 157.486 31.4108C157.634 29.7839 157.707 27.7398 157.707 25.2786V17.6134L158.95 17.9576C162.162 17.676 164.679 17.2693 166.512 16.727L168.481 18.6563C166.354 19.2612 163.584 19.6992 160.172 19.9704V20.8151H168.534V26.5197H165.311L167.355 27.062C167.291 27.1975 167.175 27.3957 167.028 27.6773C166.828 28.011 166.691 28.2508 166.607 28.4177H168.65V30.2428H166.301V31.0875H168.418V32.7144H166.301V33.58H168.45V35.259H166.301V36.1246H168.85V37.2405C170.093 36.4792 171.083 35.624 171.82 34.675L174.169 36.062C173.621 36.6878 172.947 37.3135 172.146 37.9497C171.346 38.5858 170.577 39.0864 169.851 39.4723H169.861ZM160.024 30.0029C160.709 28.9183 161.225 27.7503 161.573 26.5197H160.172V26.6448C160.14 28.0944 160.088 29.2103 160.024 30.0029ZM160.172 24.34H165.891V22.9843H160.172V24.34ZM163.121 28.4177H164.521C164.837 27.5104 165.038 26.8742 165.122 26.5197H162.004L163.647 26.9368C163.5 27.427 163.321 27.9276 163.121 28.4177ZM162.794 31.0875H164.363V30.2428H162.794V31.0875ZM162.794 33.58H164.363V32.7144H162.794V33.58ZM162.794 36.1246H164.363V35.259H162.794V36.1246ZM169.682 34.4456V21.347H172.673C172.726 21.0028 172.778 20.4814 172.852 19.7931H169.187V17.3214H179.498V19.7931H175.801C175.654 20.3354 175.506 20.8568 175.348 21.347H179.087V34.4456H169.682ZM172.104 25.0805H176.57V23.5683H172.104V25.0805ZM172.104 28.668H176.57V27.135H172.104V28.668ZM172.104 32.2555H176.57V30.7433H172.104V32.2555ZM177.897 39.4514C177.286 38.565 176.254 37.4386 174.832 36.0933L176.928 34.7793C178.371 36.0203 179.445 37.0736 180.119 37.9705L177.897 39.4514Z" fill="#595757"/>
<path fill-rule="evenodd" clip-rule="evenodd" d="M82.2154 49.5778C82.2154 47.7423 81.1833 46.5326 79.4666 46.5326C77.792 46.5326 76.7283 47.7319 76.7283 49.5778C76.7283 51.4237 77.792 52.6334 79.4771 52.6334C81.1622 52.6334 82.2154 51.4133 82.2154 49.5778ZM81.2465 49.5778C81.2465 50.944 80.5935 51.7887 79.4666 51.7887C78.3818 51.7887 77.6762 50.9335 77.6762 49.5778C77.6762 48.222 78.3186 47.3773 79.4561 47.3773C80.5935 47.3773 81.2465 48.2116 81.2465 49.5778Z" fill="#595757"/>
<path d="M76.0754 52.5704V51.7778H73.632V46.6572H72.7158V52.5704H76.0754Z" fill="#595757"/>
<path d="M83.2688 46.6469H84.3536L85.828 49.1185C86.7548 50.6829 87.1445 51.465 87.1445 51.465C87.1445 51.465 87.0919 50.662 87.0919 49.1185V46.6365H88.0081V52.5496H86.9233L85.4384 50.0884C84.5326 48.5867 84.1113 47.7211 84.1113 47.7211C84.1113 47.7211 84.1851 48.5971 84.1851 50.078V52.5496H83.2688V46.6469Z" fill="#595757"/>
<path d="M94.1058 52.0812V49.182H91.9995V49.9642H93.2106V51.6015C92.9263 51.7058 92.5892 51.7892 92.1996 51.7892C90.841 51.7892 90.0195 50.934 90.0195 49.5992C90.0195 48.2643 90.8936 47.3987 92.1574 47.3987C92.6735 47.3987 93.2843 47.5134 93.8636 47.868V46.9398C93.3265 46.6374 92.6946 46.5435 92.1259 46.5435C90.3776 46.5435 89.0716 47.7011 89.0716 49.5992C89.0716 51.4972 90.346 52.6339 92.1785 52.6339C93.0105 52.6339 93.6951 52.3837 94.1058 52.0812Z" fill="#595757"/>
<path d="M101.11 47.4081H99.5405V52.5704H98.6243V47.4081H97.0656V46.6572H101.11V47.4081Z" fill="#595757"/>
<path d="M105.396 52.5605V51.8097L105.406 51.7992H102.868V49.9742H105.08V49.2233H102.868V47.3983H105.354V46.6474H101.952V52.5605H105.396Z" fill="#595757"/>
<path fill-rule="evenodd" clip-rule="evenodd" d="M108.208 50.3184H107.418V52.5606H106.502V46.6474H108.166C109.556 46.6474 110.315 47.3774 110.315 48.4933C110.293 49.338 109.851 49.9221 109.135 50.1828L110.694 52.571H109.598L108.198 50.3288L108.208 50.3184ZM108.24 49.5675C109.03 49.5675 109.388 49.1086 109.388 48.4829C109.388 47.7841 108.977 47.4087 108.187 47.4087H107.408V49.5675H108.24Z" fill="#595757"/>
<path d="M113.01 46.6474H111.926L111.462 52.5605H112.368L112.547 50.2453C112.621 49.1503 112.684 48.1387 112.684 47.9093C112.684 47.9093 113.01 48.8792 113.495 50.2453L114.306 52.4458H115.022L115.854 50.2453C116.328 48.9939 116.728 47.878 116.728 47.878C116.728 47.878 116.802 48.9939 116.918 50.2453L117.128 52.5605H118.034L117.486 46.6474H116.402L115.57 48.8062C115.085 50.0889 114.674 51.2778 114.674 51.2778C114.674 51.2778 114.285 50.0472 113.811 48.8062L113.01 46.6474Z" fill="#595757"/>
<path d="M125.733 47.7839L125.722 47.7782V46.8974C125.27 46.6471 124.732 46.5741 124.185 46.5741C122.447 46.5741 121.162 47.7213 121.162 49.5985C121.162 51.4757 122.447 52.6333 124.206 52.6333C124.711 52.6333 125.312 52.5498 125.733 52.2787V51.361C125.375 51.6321 124.817 51.799 124.29 51.799C123.005 51.799 122.131 50.9438 122.131 49.5985C122.131 48.2532 123.068 47.4084 124.227 47.4084C124.896 47.4084 125.243 47.5215 125.722 47.7782V47.7839H125.733Z" fill="#595757"/>
<path fill-rule="evenodd" clip-rule="evenodd" d="M127.861 51.1208H130.272L130.746 52.5704H131.726L129.683 46.6572H128.482L126.418 52.5704H127.387L127.861 51.1208ZM129.925 50.0675L130.02 50.3699H128.113L128.208 50.0675C128.977 47.7418 129.072 47.3351 129.072 47.3351C129.072 47.3351 129.166 47.7418 129.925 50.0675Z" fill="#595757"/>
<path fill-rule="evenodd" clip-rule="evenodd" d="M134.337 50.3184H133.547V52.5606H132.631V46.6474H134.295C135.685 46.6474 136.444 47.3774 136.444 48.4933C136.423 49.338 135.98 49.9221 135.264 50.1828L136.823 52.571H135.727L134.327 50.3288L134.337 50.3184ZM134.369 49.5675C135.159 49.5675 135.517 49.1086 135.517 48.4829C135.517 47.7841 135.106 47.4087 134.316 47.4087H133.537V49.5675H134.369Z" fill="#595757"/>
<path d="M141.12 52.5605V51.8097L141.131 51.7992H138.592V49.9742H140.794V49.2233H138.592V47.3983H141.078V46.6474H137.676V52.5605H141.12Z" fill="#595757"/>
<path d="M147.639 47.7837C147.281 47.5647 146.765 47.4187 146.291 47.4187C145.638 47.4187 145.248 47.7316 145.248 48.2009C145.248 48.7187 145.757 48.9486 146.352 49.2173L146.365 49.2229C147.123 49.5462 147.955 49.9216 147.955 50.9645C147.955 52.0074 147.102 52.6436 145.954 52.6436C145.364 52.6436 144.753 52.5184 144.321 52.2681V51.3295C144.774 51.6632 145.354 51.851 145.943 51.851C146.586 51.851 146.997 51.5485 146.997 51.0062C146.997 50.4808 146.532 50.2784 145.938 50.0197L145.88 49.9946L145.837 49.9751C145.11 49.6465 144.29 49.2756 144.29 48.253C144.29 47.2101 145.132 46.6157 146.27 46.6157C146.723 46.6157 147.239 46.6991 147.639 46.8973V47.7837Z" fill="#595757"/>
<path d="M152.473 52.5605V51.8097L152.484 51.7992H149.945V49.9742H152.147V49.2233H149.945V47.3983H152.431V46.6474H149.029V52.5605H152.473Z" fill="#595757"/>
<path fill-rule="evenodd" clip-rule="evenodd" d="M155.285 50.3184H154.495V52.5606H153.579V46.6474H155.243C156.633 46.6474 157.392 47.3774 157.392 48.4933C157.371 49.338 156.928 49.9221 156.212 50.1828L157.771 52.571H156.676L155.275 50.3288L155.285 50.3184ZM155.317 49.5675C156.107 49.5675 156.465 49.1086 156.465 48.4829C156.465 47.7841 156.054 47.4087 155.264 47.4087H154.485V49.5675H155.317Z" fill="#595757"/>
<path d="M160.256 52.5704H161.341L163.405 46.6572H162.426L161.657 49.0037C161.088 50.7036 160.804 51.757 160.804 51.757C160.804 51.757 160.53 50.7036 159.982 49.0037L159.224 46.6572H158.245L160.256 52.5704Z" fill="#595757"/>
<path d="M164.395 46.6474H165.301V52.5605H164.395V46.6474Z" fill="#595757"/>
<path d="M170.967 47.7782L170.978 47.7839H170.967V47.7782Z" fill="#595757"/>
<path d="M170.967 47.7782C170.488 47.5215 170.141 47.4084 169.472 47.4084C168.313 47.4084 167.376 48.2532 167.376 49.5985C167.376 50.9438 168.25 51.799 169.535 51.799C170.062 51.799 170.62 51.6321 170.978 51.361V52.2787C170.557 52.5498 169.956 52.6333 169.451 52.6333C167.692 52.6333 166.407 51.4757 166.407 49.5985C166.407 47.7213 167.692 46.5741 169.43 46.5741C169.977 46.5741 170.514 46.6471 170.967 46.8974V47.7782Z" fill="#595757"/>
<path d="M175.475 51.8097V52.5605H172.031V46.6474H175.433V47.3983H172.947V49.2233H175.159V49.9742H172.947V51.7992H175.485L175.475 51.8097Z" fill="#595757"/>
<path d="M178.455 47.4187C178.929 47.4187 179.445 47.5647 179.803 47.7837V46.8973C179.403 46.6991 178.887 46.6157 178.434 46.6157C177.297 46.6157 176.454 47.2101 176.454 48.253C176.454 49.2756 177.274 49.6465 178.001 49.9751L178.045 49.9946L178.102 50.0197C178.696 50.2784 179.161 50.4808 179.161 51.0062C179.161 51.5485 178.75 51.851 178.108 51.851C177.518 51.851 176.939 51.6632 176.486 51.3295V52.2681C176.918 52.5184 177.528 52.6436 178.118 52.6436C179.266 52.6436 180.119 52.0074 180.119 50.9645C180.119 49.9216 179.287 49.5462 178.529 49.2229L178.517 49.2173C177.922 48.9486 177.413 48.7187 177.413 48.2009C177.413 47.7316 177.802 47.4187 178.455 47.4187Z" fill="#595757"/>
<path d="M60.5923 30.0234V42.0085H60.5735C50.5484 42.0085 42.4042 50.0731 42.4042 60.0002H30.3008C30.3008 43.4333 43.8525 30.0234 60.5735 30.0234H60.5923Z" fill="#ED6C00"/>
<path d="M30.2915 0V0.0279373H30.2727C13.5705 0.0279373 0.0376176 13.4099 0 29.9395V30.0326C0 44.681 10.5893 56.8617 24.6019 59.4785V47.1395C17.3417 44.7742 12.1034 37.9947 12.1034 30.0419V30.014C12.1034 20.0869 20.2476 12.0224 30.2727 12.0224H30.2915V11.9944C38.3511 11.9944 45.1787 17.2001 47.558 24.3893H60.0376C57.395 10.5044 45.0846 0 30.2915 0Z" fill="#ED6C00"/>
<path d="M30.3012 21.0459C25.298 21.0459 21.2354 25.0689 21.2354 30.0231C21.2354 34.9773 25.298 39.0003 30.3012 39.0003C35.3043 39.0003 39.367 34.9773 39.367 30.0231C39.367 25.0689 35.3043 21.0459 30.3012 21.0459Z" fill="#ED6C00"/>
<path d="M59.0876 36.2998C46.6832 36.2998 36.6299 46.2548 36.6299 58.5379C36.6299 59.0315 36.6769 59.5157 36.7051 60.0093H42.3948C42.3948 50.0822 50.539 42.0176 60.5641 42.0176H60.5829V36.3836C60.0844 36.3464 59.586 36.3091 59.0782 36.3091L59.0876 36.2998Z" fill="#D3A358"/>
</svg>
