<svg width="169" height="60" viewBox="0 0 169 60" fill="none" xmlns="http://www.w3.org/2000/svg">
<path d="M87.3849 38.7943C84.8142 38.1788 82.6851 37.1325 80.9878 35.6554C79.3885 34.2603 78.0934 32.3934 77.1024 30.0443H74.4239V35.1938C75.9937 34.9681 77.6617 34.7117 79.4474 34.4142L79.5651 36.9684C76.7099 37.4505 73.3152 38.0045 69.3611 38.6199L68.7332 35.9734C68.9981 35.9426 69.4102 35.8811 69.9891 35.799C70.6661 35.7169 71.1959 35.6554 71.5687 35.6041V30.0341H67.7324V27.4799H71.5883V16.8835H86.2565V19.2428H74.4239V20.5353H85.609V22.7715H74.4239V23.9819H85.609V26.2182H74.4239V27.4799H88.6702V30.0341H86.1879L87.9736 31.3471C86.7373 32.2908 85.3048 33.2038 83.6957 34.0962C85.2165 35.081 87.0218 35.7785 89.1117 36.1888C88.4151 36.9479 87.8362 37.8198 87.3652 38.7841L87.3849 38.7943ZM81.8315 32.5678C83.107 31.7882 84.2844 30.947 85.3931 30.0443H79.9968C80.4972 30.9676 81.1055 31.8087 81.8315 32.5678Z" fill="#595757"/>
<path d="M95.5186 38.8456C94.8809 38.2096 94.145 37.6352 93.311 37.1223C93.9193 36.6504 94.4982 36.0657 95.0575 35.3477C95.6167 34.6399 96.0582 33.9116 96.382 33.1833L98.9624 33.9834C98.5602 34.8553 98.0402 35.7375 97.4024 36.6299C96.7843 37.5018 96.1563 38.2404 95.5186 38.8456ZM93.4974 33.0089V30.4854H95.5873V21.4688H93.7722V18.9453H95.5873V16.3706H98.0794V18.9453H100.964V16.3706H103.495V18.9453H105.075V21.4688H103.495V30.4854H104.908V33.0089H93.4974ZM98.0794 22.8741H100.964V21.4688H98.0794V22.8741ZM98.0794 26.6182H100.964V25.0898H98.0794V26.6182ZM98.0794 30.4854H100.964V28.8339H98.0794V30.4854ZM106.174 38.8251C105.938 38.5686 105.595 38.2609 105.124 37.9019C104.663 37.5429 104.28 37.3069 103.986 37.1941C104.015 37.1428 104.055 37.0812 104.113 36.9889C104.172 36.8966 104.202 36.8351 104.221 36.7838L102.289 37.9224C101.788 36.8966 100.964 35.6759 99.8062 34.2501L101.896 33.0602C103.103 34.4552 103.947 35.5528 104.408 36.3632C105.016 35.0194 105.418 33.3166 105.644 31.2548C105.801 29.8802 105.88 28.1466 105.88 26.054V17.1297H114.484V35.5528C114.484 36.2811 114.406 36.8453 114.249 37.2556C114.092 37.6557 113.817 37.9737 113.415 38.1994C112.767 38.5686 111.521 38.743 109.696 38.7122C109.569 37.7275 109.304 36.8043 108.901 35.9631C109.461 36.0144 110.206 36.0247 111.129 36.0144H111.335C111.649 36.0144 111.796 35.84 111.796 35.5015V30.7111H108.264C107.95 34.2296 107.253 36.9274 106.174 38.8046V38.8251ZM108.431 28.1569H111.806V25.1719H108.46V26.0746C108.46 26.967 108.46 27.6645 108.44 28.1672L108.431 28.1569ZM108.45 22.6176H111.796V19.7762H108.45V22.6176Z" fill="#595757"/>
<path d="M122.373 38.8661L119.704 37.6762C120.862 36.2298 121.823 34.5681 122.559 32.6704L125.228 33.45C124.325 35.6041 123.373 37.4095 122.373 38.8661ZM120.744 32.4447V16.9861H128.132V22.9869C129.368 22.6279 130.31 22.1458 130.948 21.5303C131.488 21.0072 131.88 20.3199 132.106 19.4377H128.809V16.9143H140.779C140.759 17.2425 140.75 17.5605 140.73 17.8888C140.632 19.6018 140.524 20.8533 140.406 21.6329C140.269 22.474 140.063 23.0382 139.798 23.3357C139.425 23.7768 138.895 24.0332 138.189 24.1153C137.522 24.1974 136.629 24.2179 135.52 24.1666C135.461 23.2947 135.236 22.5253 134.843 21.8586C135.638 21.9201 136.305 21.9611 136.864 21.9611C137.178 21.9611 137.404 21.8791 137.561 21.715C137.767 21.4995 137.914 20.7507 138.022 19.4582H134.814C134.549 20.8225 134.088 21.9099 133.44 22.7202C132.685 23.6639 131.566 24.4025 130.094 24.9359H140.043V32.178H129.486V25.1308L129.437 25.1513C129.162 24.4025 128.711 23.7358 128.112 23.1305V31.3163H123.324V32.4549H120.724L120.744 32.4447ZM123.344 22.6689H125.601V19.5095H123.344V22.6689ZM123.344 28.7211H125.601V25.1924H123.344V28.7211ZM126.857 38.661C126.857 37.2043 126.709 35.5118 126.415 33.5833L128.976 33.2653C129.349 35.2451 129.545 36.8966 129.584 38.2199L126.866 38.661H126.857ZM132.528 38.5584C132.371 37.1941 131.968 35.522 131.321 33.532L133.921 33.0499C134.598 34.845 135.059 36.4965 135.294 37.9839L132.528 38.5686V38.5584ZM132.106 29.8084H137.316V27.2029H132.106V29.8084ZM138.64 38.7533C138.159 37.3582 137.316 35.6144 136.109 33.5012L138.621 32.4857C139.955 34.6604 140.848 36.3529 141.319 37.5634L138.65 38.7533H138.64Z" fill="#595757"/>
<path d="M158.244 38.8251C157.9 38.4045 157.449 37.9429 156.87 37.4403H151.66V38.5379H149.658V32.219L149.541 32.3626C149.541 32.3626 149.492 32.3011 149.443 32.2395C149.227 31.9831 149.05 31.7677 148.913 31.6035C148.618 34.4245 148.128 36.7427 147.451 38.5584C147.264 38.3019 146.97 38.0147 146.578 37.6967C146.185 37.3787 145.842 37.1633 145.547 37.0505C146.117 35.4297 146.509 33.3782 146.715 30.8958C146.852 29.2955 146.921 27.285 146.921 24.8641V17.3246L148.079 17.6631C151.071 17.3861 153.416 16.9861 155.123 16.4527L156.958 18.3504C154.976 18.9453 152.396 19.3762 149.217 19.6429V20.4738H157.007V26.0848H154.005L155.908 26.6182C155.85 26.7516 155.742 26.9465 155.604 27.2234C155.418 27.5517 155.29 27.7876 155.212 27.9517H157.115V29.7469H154.927V30.5778H156.899V32.178H154.927V33.0294H156.929V34.6809H154.927V35.5323H157.302V36.6299C158.459 35.8811 159.382 35.0399 160.068 34.1065L162.256 35.4708C161.746 36.0862 161.118 36.7017 160.373 37.3274C159.627 37.9532 158.911 38.4455 158.234 38.8251H158.244ZM149.08 29.5109C149.717 28.4441 150.198 27.2952 150.522 26.0848H149.217V26.2079C149.188 27.6337 149.138 28.7313 149.08 29.5109ZM149.217 23.9409H154.545V22.6074H149.217V23.9409ZM151.964 27.9517H153.269C153.563 27.0593 153.75 26.4336 153.828 26.0848H150.924L152.455 26.4951C152.317 26.9772 152.151 27.4696 151.964 27.9517ZM151.66 30.5778H153.122V29.7469H151.66V30.5778ZM151.66 33.0294H153.122V32.178H151.66V33.0294ZM151.66 35.5323H153.122V34.6809H151.66V35.5323ZM158.077 33.8808V20.9969H160.863C160.912 20.6584 160.961 20.1455 161.03 19.4685H157.616V17.0374H167.221V19.4685H163.777C163.64 20.0019 163.503 20.5148 163.355 20.9969H166.838V33.8808H158.077ZM160.333 24.6692H164.493V23.1818H160.333V24.6692ZM160.333 28.1979H164.493V26.69H160.333V28.1979ZM160.333 31.7266H164.493V30.2392H160.333V31.7266ZM165.73 38.8046C165.161 37.9326 164.199 36.8248 162.875 35.5015L164.827 34.209C166.171 35.4297 167.172 36.4658 167.8 37.348L165.73 38.8046Z" fill="#595757"/>
<path fill-rule="evenodd" clip-rule="evenodd" d="M76.5923 48.7649C76.5923 46.9596 75.6308 45.7696 74.0315 45.7696C72.4715 45.7696 71.4805 46.9493 71.4805 48.7649C71.4805 50.5806 72.4714 51.7705 74.0413 51.7705C75.6111 51.7705 76.5923 50.5703 76.5923 48.7649ZM75.6896 48.7649C75.6896 50.1087 75.0813 50.9396 74.0315 50.9396C73.0209 50.9396 72.3635 50.0985 72.3635 48.7649C72.3635 47.4314 72.962 46.6005 74.0217 46.6005C75.0813 46.6005 75.6896 47.4212 75.6896 48.7649Z" fill="#595757"/>
<path d="M70.8722 51.7085V50.9289H68.596V45.8923H67.7424V51.7085H70.8722Z" fill="#595757"/>
<path d="M77.5736 45.8821H78.5842L79.9578 48.3132C80.8213 49.8519 81.1843 50.6212 81.1843 50.6212C81.1843 50.6212 81.1352 49.8314 81.1352 48.3132V45.8718H81.9888V51.688H80.9782L79.5948 49.2672C78.751 47.7901 78.3586 46.9387 78.3586 46.9387C78.3586 46.9387 78.4272 47.8003 78.4272 49.2569V51.688H77.5736V45.8821Z" fill="#595757"/>
<path d="M87.6695 51.2273V48.3756H85.7072V49.145H86.8355V50.7555C86.5706 50.858 86.2566 50.9401 85.8936 50.9401C84.6279 50.9401 83.8626 50.099 83.8626 48.786C83.8626 47.4729 84.677 46.6215 85.8544 46.6215C86.3351 46.6215 86.9042 46.7344 87.4438 47.0831V46.1702C86.9434 45.8727 86.3547 45.7804 85.8249 45.7804C84.1962 45.7804 82.9796 46.919 82.9796 48.786C82.9796 50.6529 84.1668 51.771 85.874 51.771C86.6491 51.771 87.2868 51.5248 87.6695 51.2273Z" fill="#595757"/>
<path d="M94.1944 46.6308H92.7325V51.7085H91.8789V46.6308H90.4268V45.8923H94.1944V46.6308Z" fill="#595757"/>
<path d="M98.1873 51.6988V50.9602L98.1971 50.95H95.8326V49.1548H97.893V48.4163H95.8326V46.6212H98.1481V45.8826H94.979V51.6988H98.1873Z" fill="#595757"/>
<path fill-rule="evenodd" clip-rule="evenodd" d="M100.807 49.4934H100.071V51.6988H99.2178V45.8826H100.768C102.063 45.8826 102.77 46.6006 102.77 47.6982C102.75 48.5291 102.338 49.1036 101.671 49.36L103.123 51.7091H102.102L100.797 49.5036L100.807 49.4934ZM100.837 48.7548C101.573 48.7548 101.906 48.3034 101.906 47.688C101.906 47.0007 101.524 46.6314 100.788 46.6314H100.062V48.7548H100.837Z" fill="#595757"/>
<path d="M105.281 45.8826H104.27L103.839 51.6988H104.683L104.849 49.4216C104.918 48.3445 104.977 47.3495 104.977 47.1238C104.977 47.1238 105.281 48.0778 105.732 49.4216L106.488 51.586H107.155L107.93 49.4216C108.372 48.1906 108.745 47.093 108.745 47.093C108.745 47.093 108.813 48.1906 108.921 49.4216L109.117 51.6988H109.961L109.451 45.8826H108.44L107.665 48.006C107.214 49.2677 106.831 50.4371 106.831 50.4371C106.831 50.4371 106.468 49.2267 106.027 48.006L105.281 45.8826Z" fill="#595757"/>
<path d="M117.134 47.0004L117.124 46.9949V46.1285C116.702 45.8823 116.201 45.8105 115.691 45.8105C114.072 45.8105 112.875 46.9389 112.875 48.7853C112.875 50.6317 114.072 51.7703 115.711 51.7703C116.182 51.7703 116.741 51.6883 117.134 51.4216V50.5189C116.8 50.7856 116.28 50.9497 115.789 50.9497C114.592 50.9497 113.778 50.1086 113.778 48.7853C113.778 47.462 114.651 46.6311 115.731 46.6311C116.354 46.6311 116.677 46.7424 117.124 46.9949V47.0004H117.134Z" fill="#595757"/>
<path fill-rule="evenodd" clip-rule="evenodd" d="M119.116 50.2826H121.362L121.804 51.7085H122.716L120.813 45.8923H119.694L117.771 51.7085H118.674L119.116 50.2826ZM121.039 49.2466L121.127 49.5441H119.351L119.439 49.2466C120.156 46.9591 120.244 46.559 120.244 46.559C120.244 46.559 120.332 46.9591 121.039 49.2466Z" fill="#595757"/>
<path fill-rule="evenodd" clip-rule="evenodd" d="M125.149 49.4934H124.414V51.6988H123.56V45.8826H125.11C126.405 45.8826 127.112 46.6006 127.112 47.6982C127.092 48.5291 126.68 49.1036 126.013 49.36L127.465 51.7091H126.444L125.14 49.5036L125.149 49.4934ZM125.179 48.7548C125.915 48.7548 126.248 48.3034 126.248 47.688C126.248 47.0007 125.866 46.6314 125.13 46.6314H124.404V48.7548H125.179Z" fill="#595757"/>
<path d="M131.468 51.6988V50.9602L131.478 50.95H129.113V49.1548H131.164V48.4163H129.113V46.6212H131.429V45.8826H128.26V51.6988H131.468Z" fill="#595757"/>
<path d="M137.541 47.0003C137.208 46.7849 136.727 46.6412 136.285 46.6412C135.677 46.6412 135.314 46.949 135.314 47.4106C135.314 47.9199 135.788 48.146 136.343 48.4103L136.354 48.4159C137.061 48.7339 137.836 49.1031 137.836 50.1289C137.836 51.1547 137.041 51.7804 135.971 51.7804C135.422 51.7804 134.853 51.6573 134.451 51.4112V50.4879C134.873 50.8162 135.412 51.0008 135.962 51.0008C136.56 51.0008 136.943 50.7034 136.943 50.17C136.943 49.6531 136.51 49.4541 135.956 49.1996L135.903 49.1749L135.863 49.1558C135.185 48.8325 134.421 48.4677 134.421 47.4619C134.421 46.4361 135.206 45.8514 136.266 45.8514C136.688 45.8514 137.168 45.9335 137.541 46.1284V47.0003Z" fill="#595757"/>
<path d="M142.045 51.6988V50.9602L142.055 50.95H139.69V49.1548H141.741V48.4163H139.69V46.6212H142.005V45.8826H138.836V51.6988H142.045Z" fill="#595757"/>
<path fill-rule="evenodd" clip-rule="evenodd" d="M144.665 49.4934H143.929V51.6988H143.075V45.8826H144.625C145.921 45.8826 146.627 46.6006 146.627 47.6982C146.607 48.5291 146.195 49.1036 145.528 49.36L146.98 51.7091H145.96L144.655 49.5036L144.665 49.4934ZM144.694 48.7548C145.43 48.7548 145.764 48.3034 145.764 47.688C145.764 47.0007 145.381 46.6314 144.645 46.6314H143.919V48.7548H144.694Z" fill="#595757"/>
<path d="M149.296 51.7085H150.306L152.229 45.8923H151.317L150.601 48.2003C150.071 49.8723 149.806 50.9084 149.806 50.9084C149.806 50.9084 149.551 49.8723 149.04 48.2003L148.334 45.8923H147.422L149.296 51.7085Z" fill="#595757"/>
<path d="M153.152 45.8826H153.995V51.6988H153.152V45.8826Z" fill="#595757"/>
<path d="M159.274 46.9949L159.284 47.0004H159.274V46.9949Z" fill="#595757"/>
<path d="M159.274 46.9949C158.828 46.7424 158.504 46.6311 157.881 46.6311C156.802 46.6311 155.928 47.462 155.928 48.7853C155.928 50.1086 156.743 50.9497 157.94 50.9497C158.43 50.9497 158.95 50.7856 159.284 50.5189V51.4216C158.891 51.6883 158.332 51.7703 157.861 51.7703C156.223 51.7703 155.026 50.6317 155.026 48.7853C155.026 46.9389 156.223 45.8105 157.842 45.8105C158.352 45.8105 158.852 45.8823 159.274 46.1285V46.9949Z" fill="#595757"/>
<path d="M163.473 50.9602V51.6988H160.265V45.8826H163.434V46.6212H161.119V48.4163H163.179V49.1548H161.119V50.95H163.483L163.473 50.9602Z" fill="#595757"/>
<path d="M166.25 46.6412C166.691 46.6412 167.172 46.7849 167.506 47.0003V46.1284C167.133 45.9335 166.652 45.8514 166.23 45.8514C165.171 45.8514 164.386 46.4361 164.386 47.4619C164.386 48.4677 165.15 48.8325 165.827 49.1558L165.867 49.1749L165.921 49.1996C166.474 49.4541 166.907 49.6531 166.907 50.17C166.907 50.7034 166.525 51.0008 165.926 51.0008C165.377 51.0008 164.837 50.8162 164.415 50.4879V51.4112C164.817 51.6573 165.387 51.7804 165.936 51.7804C167.005 51.7804 167.8 51.1547 167.8 50.1289C167.8 49.1031 167.025 48.7339 166.319 48.4159L166.307 48.4103C165.753 48.146 165.279 47.9199 165.279 47.4106C165.279 46.949 165.642 46.6412 166.25 46.6412Z" fill="#595757"/>
<path d="M56.4483 29.5312V41.3199H56.4308C47.0914 41.3199 39.5042 49.2522 39.5042 59.0166H28.2285C28.2285 42.7213 40.8534 29.5312 56.4308 29.5312H56.4483Z" fill="#ED6C00"/>
<path d="M28.2198 0V0.0274793H28.2023C12.6424 0.0274793 0.0350447 13.1901 0 29.4487V29.5403C0 43.9486 9.8651 55.9296 22.9193 58.5034V46.3668C16.1556 44.0402 11.2756 37.3719 11.2756 29.5494V29.5219C11.2756 19.7576 18.8628 11.8253 28.2023 11.8253H28.2198V11.7978C35.7281 11.7978 42.0887 16.9181 44.3053 23.9894H55.9314C53.4695 10.3322 42.0011 0 28.2198 0Z" fill="#ED6C00"/>
<path d="M28.2285 20.7012C23.5675 20.7012 19.7827 24.6582 19.7827 29.5312C19.7827 34.4042 23.5675 38.3612 28.2285 38.3612C32.8895 38.3612 36.6743 34.4042 36.6743 29.5312C36.6743 24.6582 32.8895 20.7012 28.2285 20.7012Z" fill="#ED6C00"/>
<path d="M55.0467 35.7046C43.4907 35.7046 34.125 45.4964 34.125 57.5781C34.125 58.0636 34.1688 58.5399 34.1951 59.0254H39.4956C39.4956 49.2611 47.0828 41.3287 56.4222 41.3287H56.4397V35.787C55.9754 35.7504 55.5111 35.7138 55.038 35.7138L55.0467 35.7046Z" fill="#D3A358"/>
</svg>
